<mxfile host="app.diagrams.net" modified="2021-09-27T16:03:48.209Z" agent="5.0 (Windows NT 10.0; Win64; x64) AppleWebKit/537.36 (KHTML, like Gecko) Chrome/93.0.4577.82 Safari/537.36" etag="MPa8WZKz-NnZ0Osr1h1q" version="15.3.5" type="github">
  <diagram id="dRzpOVpFm9Ay4RM9uaLY" name="Page-1">
    <mxGraphModel dx="1038" dy="579" grid="1" gridSize="10" guides="1" tooltips="1" connect="1" arrows="1" fold="1" page="1" pageScale="1" pageWidth="827" pageHeight="1169" math="0" shadow="0">
      <root>
        <mxCell id="0" />
        <mxCell id="1" parent="0" />
        <mxCell id="UpMxLX8vO4ziHgFZbLhg-17" style="edgeStyle=none;curved=1;rounded=0;orthogonalLoop=1;jettySize=auto;html=1;exitX=1;exitY=0.5;exitDx=0;exitDy=0;endArrow=open;startSize=14;endSize=14;sourcePerimeterSpacing=8;targetPerimeterSpacing=8;" edge="1" parent="1" source="UpMxLX8vO4ziHgFZbLhg-1">
          <mxGeometry relative="1" as="geometry">
            <mxPoint x="710" y="90" as="targetPoint" />
          </mxGeometry>
        </mxCell>
        <mxCell id="UpMxLX8vO4ziHgFZbLhg-1" value="MODUL 1" style="rounded=0;whiteSpace=wrap;html=1;hachureGap=4;pointerEvents=0;" vertex="1" parent="1">
          <mxGeometry x="529" y="120" width="120" height="60" as="geometry" />
        </mxCell>
        <mxCell id="UpMxLX8vO4ziHgFZbLhg-2" value="APW" style="rounded=0;whiteSpace=wrap;html=1;hachureGap=4;pointerEvents=0;" vertex="1" parent="1">
          <mxGeometry x="354" y="190" width="120" height="60" as="geometry" />
        </mxCell>
        <mxCell id="UpMxLX8vO4ziHgFZbLhg-10" style="edgeStyle=none;curved=1;rounded=0;orthogonalLoop=1;jettySize=auto;html=1;exitX=1;exitY=0.5;exitDx=0;exitDy=0;entryX=0;entryY=0.25;entryDx=0;entryDy=0;endArrow=open;startSize=14;endSize=14;sourcePerimeterSpacing=8;targetPerimeterSpacing=8;" edge="1" parent="1" source="UpMxLX8vO4ziHgFZbLhg-3" target="UpMxLX8vO4ziHgFZbLhg-2">
          <mxGeometry relative="1" as="geometry" />
        </mxCell>
        <mxCell id="UpMxLX8vO4ziHgFZbLhg-3" value="WEB(VUETIFY,ANGULAR)" style="rounded=0;whiteSpace=wrap;html=1;hachureGap=4;pointerEvents=0;" vertex="1" parent="1">
          <mxGeometry x="30" y="60" width="160" height="60" as="geometry" />
        </mxCell>
        <mxCell id="UpMxLX8vO4ziHgFZbLhg-25" style="edgeStyle=none;curved=1;rounded=0;orthogonalLoop=1;jettySize=auto;html=1;exitX=1;exitY=1;exitDx=0;exitDy=0;entryX=0;entryY=0;entryDx=0;entryDy=0;endArrow=open;startSize=14;endSize=14;sourcePerimeterSpacing=8;targetPerimeterSpacing=8;" edge="1" parent="1" source="UpMxLX8vO4ziHgFZbLhg-4" target="UpMxLX8vO4ziHgFZbLhg-24">
          <mxGeometry relative="1" as="geometry" />
        </mxCell>
        <mxCell id="UpMxLX8vO4ziHgFZbLhg-38" style="edgeStyle=none;curved=1;rounded=0;orthogonalLoop=1;jettySize=auto;html=1;exitX=0.5;exitY=1;exitDx=0;exitDy=0;entryX=0.69;entryY=-0.012;entryDx=0;entryDy=0;entryPerimeter=0;endArrow=open;startSize=14;endSize=14;sourcePerimeterSpacing=8;targetPerimeterSpacing=8;" edge="1" parent="1" source="UpMxLX8vO4ziHgFZbLhg-4" target="UpMxLX8vO4ziHgFZbLhg-29">
          <mxGeometry relative="1" as="geometry" />
        </mxCell>
        <mxCell id="UpMxLX8vO4ziHgFZbLhg-39" style="edgeStyle=none;curved=1;rounded=0;orthogonalLoop=1;jettySize=auto;html=1;exitX=0.25;exitY=1;exitDx=0;exitDy=0;entryX=0.855;entryY=0;entryDx=0;entryDy=4.35;entryPerimeter=0;endArrow=open;startSize=14;endSize=14;sourcePerimeterSpacing=8;targetPerimeterSpacing=8;" edge="1" parent="1" source="UpMxLX8vO4ziHgFZbLhg-4" target="UpMxLX8vO4ziHgFZbLhg-28">
          <mxGeometry relative="1" as="geometry" />
        </mxCell>
        <mxCell id="UpMxLX8vO4ziHgFZbLhg-40" style="edgeStyle=none;curved=1;rounded=0;orthogonalLoop=1;jettySize=auto;html=1;exitX=0;exitY=1;exitDx=0;exitDy=0;entryX=0.855;entryY=0;entryDx=0;entryDy=4.35;entryPerimeter=0;endArrow=open;startSize=14;endSize=14;sourcePerimeterSpacing=8;targetPerimeterSpacing=8;" edge="1" parent="1" source="UpMxLX8vO4ziHgFZbLhg-4" target="UpMxLX8vO4ziHgFZbLhg-15">
          <mxGeometry relative="1" as="geometry" />
        </mxCell>
        <mxCell id="UpMxLX8vO4ziHgFZbLhg-4" value="MODUL 2" style="rounded=0;whiteSpace=wrap;html=1;hachureGap=4;pointerEvents=0;" vertex="1" parent="1">
          <mxGeometry x="529" y="210" width="120" height="60" as="geometry" />
        </mxCell>
        <mxCell id="UpMxLX8vO4ziHgFZbLhg-5" value="" style="endArrow=classic;html=1;startSize=14;endSize=14;sourcePerimeterSpacing=8;targetPerimeterSpacing=8;entryX=0;entryY=0.5;entryDx=0;entryDy=0;exitX=1;exitY=0;exitDx=0;exitDy=0;" edge="1" parent="1" source="UpMxLX8vO4ziHgFZbLhg-2" target="UpMxLX8vO4ziHgFZbLhg-1">
          <mxGeometry width="50" height="50" relative="1" as="geometry">
            <mxPoint x="449" y="210" as="sourcePoint" />
            <mxPoint x="519" y="140" as="targetPoint" />
          </mxGeometry>
        </mxCell>
        <mxCell id="UpMxLX8vO4ziHgFZbLhg-6" value="" style="endArrow=classic;html=1;startSize=14;endSize=14;sourcePerimeterSpacing=8;targetPerimeterSpacing=8;entryX=0;entryY=0.75;entryDx=0;entryDy=0;exitX=1;exitY=0.75;exitDx=0;exitDy=0;" edge="1" parent="1" source="UpMxLX8vO4ziHgFZbLhg-2" target="UpMxLX8vO4ziHgFZbLhg-4">
          <mxGeometry width="50" height="50" relative="1" as="geometry">
            <mxPoint x="449" y="235" as="sourcePoint" />
            <mxPoint x="499" y="185" as="targetPoint" />
          </mxGeometry>
        </mxCell>
        <mxCell id="UpMxLX8vO4ziHgFZbLhg-11" style="edgeStyle=none;curved=1;rounded=0;orthogonalLoop=1;jettySize=auto;html=1;exitX=1;exitY=0.5;exitDx=0;exitDy=0;entryX=0;entryY=0.5;entryDx=0;entryDy=0;endArrow=open;startSize=14;endSize=14;sourcePerimeterSpacing=8;targetPerimeterSpacing=8;" edge="1" parent="1" source="UpMxLX8vO4ziHgFZbLhg-7" target="UpMxLX8vO4ziHgFZbLhg-2">
          <mxGeometry relative="1" as="geometry" />
        </mxCell>
        <mxCell id="UpMxLX8vO4ziHgFZbLhg-35" style="edgeStyle=none;curved=1;rounded=0;orthogonalLoop=1;jettySize=auto;html=1;exitX=0.5;exitY=0;exitDx=0;exitDy=0;entryX=0;entryY=1;entryDx=0;entryDy=0;endArrow=open;startSize=14;endSize=14;sourcePerimeterSpacing=8;targetPerimeterSpacing=8;" edge="1" parent="1" source="UpMxLX8vO4ziHgFZbLhg-7" target="UpMxLX8vO4ziHgFZbLhg-27">
          <mxGeometry relative="1" as="geometry" />
        </mxCell>
        <mxCell id="UpMxLX8vO4ziHgFZbLhg-7" value="APP1(IONIC)" style="rounded=0;whiteSpace=wrap;html=1;hachureGap=4;pointerEvents=0;" vertex="1" parent="1">
          <mxGeometry x="30" y="160" width="160" height="60" as="geometry" />
        </mxCell>
        <mxCell id="UpMxLX8vO4ziHgFZbLhg-12" style="edgeStyle=none;curved=1;rounded=0;orthogonalLoop=1;jettySize=auto;html=1;exitX=1;exitY=0.5;exitDx=0;exitDy=0;endArrow=open;startSize=14;endSize=14;sourcePerimeterSpacing=8;targetPerimeterSpacing=8;" edge="1" parent="1" source="UpMxLX8vO4ziHgFZbLhg-8">
          <mxGeometry relative="1" as="geometry">
            <mxPoint x="360" y="220" as="targetPoint" />
          </mxGeometry>
        </mxCell>
        <mxCell id="UpMxLX8vO4ziHgFZbLhg-36" style="edgeStyle=none;curved=1;rounded=0;orthogonalLoop=1;jettySize=auto;html=1;exitX=0.5;exitY=0;exitDx=0;exitDy=0;endArrow=open;startSize=14;endSize=14;sourcePerimeterSpacing=8;targetPerimeterSpacing=8;" edge="1" parent="1" source="UpMxLX8vO4ziHgFZbLhg-8">
          <mxGeometry relative="1" as="geometry">
            <mxPoint x="370" y="100" as="targetPoint" />
          </mxGeometry>
        </mxCell>
        <mxCell id="UpMxLX8vO4ziHgFZbLhg-8" value="APP2(IONIC)" style="rounded=0;whiteSpace=wrap;html=1;hachureGap=4;pointerEvents=0;" vertex="1" parent="1">
          <mxGeometry x="30" y="260" width="160" height="60" as="geometry" />
        </mxCell>
        <mxCell id="UpMxLX8vO4ziHgFZbLhg-13" style="edgeStyle=none;curved=1;rounded=0;orthogonalLoop=1;jettySize=auto;html=1;exitX=1;exitY=0.5;exitDx=0;exitDy=0;endArrow=open;startSize=14;endSize=14;sourcePerimeterSpacing=8;targetPerimeterSpacing=8;" edge="1" parent="1" source="UpMxLX8vO4ziHgFZbLhg-9">
          <mxGeometry relative="1" as="geometry">
            <mxPoint x="360" y="230" as="targetPoint" />
          </mxGeometry>
        </mxCell>
        <mxCell id="UpMxLX8vO4ziHgFZbLhg-9" value="ADMIN PANEL(NEST JS,JAVA)" style="rounded=0;whiteSpace=wrap;html=1;hachureGap=4;pointerEvents=0;" vertex="1" parent="1">
          <mxGeometry x="30" y="380" width="160" height="60" as="geometry" />
        </mxCell>
        <mxCell id="UpMxLX8vO4ziHgFZbLhg-15" value="" style="shape=cylinder3;whiteSpace=wrap;html=1;boundedLbl=1;backgroundOutline=1;size=15;hachureGap=4;pointerEvents=0;" vertex="1" parent="1">
          <mxGeometry x="295" y="400" width="60" height="80" as="geometry" />
        </mxCell>
        <mxCell id="UpMxLX8vO4ziHgFZbLhg-16" value="LOGLAMA" style="text;html=1;align=center;verticalAlign=middle;resizable=0;points=[];autosize=1;strokeColor=none;fillColor=none;" vertex="1" parent="1">
          <mxGeometry x="290" y="490" width="70" height="20" as="geometry" />
        </mxCell>
        <mxCell id="UpMxLX8vO4ziHgFZbLhg-19" style="edgeStyle=none;curved=1;rounded=0;orthogonalLoop=1;jettySize=auto;html=1;exitX=0.5;exitY=1;exitDx=0;exitDy=0;endArrow=open;startSize=14;endSize=14;sourcePerimeterSpacing=8;targetPerimeterSpacing=8;" edge="1" parent="1" source="UpMxLX8vO4ziHgFZbLhg-18">
          <mxGeometry relative="1" as="geometry">
            <mxPoint x="660" y="170" as="targetPoint" />
          </mxGeometry>
        </mxCell>
        <mxCell id="UpMxLX8vO4ziHgFZbLhg-18" value="APÄ°" style="rounded=0;whiteSpace=wrap;html=1;hachureGap=4;pointerEvents=0;" vertex="1" parent="1">
          <mxGeometry x="690" y="20" width="120" height="60" as="geometry" />
        </mxCell>
        <mxCell id="UpMxLX8vO4ziHgFZbLhg-26" style="edgeStyle=none;curved=1;rounded=0;orthogonalLoop=1;jettySize=auto;html=1;exitX=0.5;exitY=0;exitDx=0;exitDy=0;endArrow=open;startSize=14;endSize=14;sourcePerimeterSpacing=8;targetPerimeterSpacing=8;" edge="1" parent="1" source="UpMxLX8vO4ziHgFZbLhg-24">
          <mxGeometry relative="1" as="geometry">
            <mxPoint x="650" y="250" as="targetPoint" />
          </mxGeometry>
        </mxCell>
        <mxCell id="UpMxLX8vO4ziHgFZbLhg-24" value="APÄ°" style="rounded=0;whiteSpace=wrap;html=1;hachureGap=4;pointerEvents=0;" vertex="1" parent="1">
          <mxGeometry x="690" y="330" width="120" height="60" as="geometry" />
        </mxCell>
        <mxCell id="UpMxLX8vO4ziHgFZbLhg-33" style="edgeStyle=none;curved=1;rounded=0;orthogonalLoop=1;jettySize=auto;html=1;exitX=0.5;exitY=1;exitDx=0;exitDy=0;entryX=0.427;entryY=0.017;entryDx=0;entryDy=0;entryPerimeter=0;endArrow=open;startSize=14;endSize=14;sourcePerimeterSpacing=8;targetPerimeterSpacing=8;" edge="1" parent="1" source="UpMxLX8vO4ziHgFZbLhg-27" target="UpMxLX8vO4ziHgFZbLhg-2">
          <mxGeometry relative="1" as="geometry" />
        </mxCell>
        <mxCell id="UpMxLX8vO4ziHgFZbLhg-27" value="WEB SOCKET" style="rounded=0;whiteSpace=wrap;html=1;hachureGap=4;pointerEvents=0;" vertex="1" parent="1">
          <mxGeometry x="344" y="30" width="120" height="60" as="geometry" />
        </mxCell>
        <mxCell id="UpMxLX8vO4ziHgFZbLhg-28" value="" style="shape=cylinder3;whiteSpace=wrap;html=1;boundedLbl=1;backgroundOutline=1;size=15;hachureGap=4;pointerEvents=0;" vertex="1" parent="1">
          <mxGeometry x="399" y="400" width="60" height="80" as="geometry" />
        </mxCell>
        <mxCell id="UpMxLX8vO4ziHgFZbLhg-29" value="" style="shape=cylinder3;whiteSpace=wrap;html=1;boundedLbl=1;backgroundOutline=1;size=15;hachureGap=4;pointerEvents=0;" vertex="1" parent="1">
          <mxGeometry x="495" y="400" width="60" height="80" as="geometry" />
        </mxCell>
        <mxCell id="UpMxLX8vO4ziHgFZbLhg-31" value="ROLLER" style="text;html=1;align=center;verticalAlign=middle;resizable=0;points=[];autosize=1;strokeColor=none;fillColor=none;" vertex="1" parent="1">
          <mxGeometry x="405" y="490" width="60" height="20" as="geometry" />
        </mxCell>
        <mxCell id="UpMxLX8vO4ziHgFZbLhg-32" value="TRACKING" style="text;html=1;align=center;verticalAlign=middle;resizable=0;points=[];autosize=1;strokeColor=none;fillColor=none;" vertex="1" parent="1">
          <mxGeometry x="485" y="490" width="80" height="20" as="geometry" />
        </mxCell>
        <mxCell id="UpMxLX8vO4ziHgFZbLhg-34" value="" style="endArrow=classic;html=1;startSize=14;endSize=14;sourcePerimeterSpacing=8;targetPerimeterSpacing=8;" edge="1" parent="1">
          <mxGeometry width="50" height="50" relative="1" as="geometry">
            <mxPoint x="190" y="75" as="sourcePoint" />
            <mxPoint x="340" y="70" as="targetPoint" />
          </mxGeometry>
        </mxCell>
      </root>
    </mxGraphModel>
  </diagram>
</mxfile>
